<svg width="20" height="20" viewBox="0 0 20 20" fill="none" xmlns="http://www.w3.org/2000/svg">
<path d="M15.5357 2.14282C16.8178 2.14282 17.8571 3.18216 17.8571 4.46425V15.5357C17.8571 16.8178 16.8178 17.8571 15.5357 17.8571H4.46425C3.18216 17.8571 2.14282 16.8178 2.14282 15.5357V4.46425C2.14282 3.18216 3.18216 2.14282 4.46425 2.14282H15.5357ZM16.7857 6.78782H3.21425V15.5357C3.21425 16.226 3.77389 16.7857 4.46425 16.7857H15.5357C16.226 16.7857 16.7857 16.226 16.7857 15.5357V6.78782ZM6.24909 12.501C6.7422 12.501 7.14195 12.9007 7.14195 13.3938C7.14195 13.8869 6.7422 14.2867 6.24909 14.2867C5.75598 14.2867 5.35623 13.8869 5.35623 13.3938C5.35623 12.9007 5.75598 12.501 6.24909 12.501ZM10.0023 12.501C10.4954 12.501 10.8952 12.9007 10.8952 13.3938C10.8952 13.8869 10.4954 14.2867 10.0023 14.2867C9.50918 14.2867 9.10944 13.8869 9.10944 13.3938C9.10944 12.9007 9.50918 12.501 10.0023 12.501ZM6.24909 8.92954C6.7422 8.92954 7.14195 9.32929 7.14195 9.8224C7.14195 10.3155 6.7422 10.7153 6.24909 10.7153C5.75598 10.7153 5.35623 10.3155 5.35623 9.8224C5.35623 9.32929 5.75598 8.92954 6.24909 8.92954ZM10.0023 8.92954C10.4954 8.92954 10.8952 9.32929 10.8952 9.8224C10.8952 10.3155 10.4954 10.7153 10.0023 10.7153C9.50918 10.7153 9.10944 10.3155 9.10944 9.8224C9.10944 9.32929 9.50918 8.92954 10.0023 8.92954ZM13.7555 8.92954C14.2486 8.92954 14.6484 9.32929 14.6484 9.8224C14.6484 10.3155 14.2486 10.7153 13.7555 10.7153C13.2624 10.7153 12.8626 10.3155 12.8626 9.8224C12.8626 9.32929 13.2624 8.92954 13.7555 8.92954ZM15.5357 3.21425H4.46425C3.77389 3.21425 3.21425 3.77389 3.21425 4.46425V5.71639H16.7857V4.46425C16.7857 3.77389 16.226 3.21425 15.5357 3.21425Z" fill="#424242"/>
</svg>
