<svg width="20" height="20" viewBox="0 0 20 20" fill="none" xmlns="http://www.w3.org/2000/svg">
<path d="M4.46425 17.8571C3.18216 17.8571 2.14282 16.8178 2.14282 15.5357V4.46425C2.14282 3.18216 3.18216 2.14282 4.46425 2.14282H15.5357C16.8178 2.14282 17.8571 3.18216 17.8571 4.46425V15.5357C17.8571 16.8178 16.8178 17.8571 15.5357 17.8571H4.46425ZM4.46425 16.7857H15.5357C16.226 16.7857 16.7857 16.226 16.7857 15.5357V4.46425C16.7857 3.77389 16.226 3.21425 15.5357 3.21425H4.46425C3.77389 3.21425 3.21425 3.77389 3.21425 4.46425V15.5357C3.21425 16.226 3.77389 16.7857 4.46425 16.7857ZM5.35711 5.53568C5.35711 5.23981 5.59696 4.99997 5.89282 4.99997H14.1071C14.403 4.99997 14.6428 5.23981 14.6428 5.53568V8.74997C14.6428 9.04583 14.403 9.28568 14.1071 9.28568H5.89282C5.59696 9.28568 5.35711 9.04583 5.35711 8.74997V5.53568ZM6.42854 6.07139V8.21425H13.5714V6.07139H6.42854Z" fill="#424242"/>
<path fill-rule="evenodd" clip-rule="evenodd" d="M5.35711 11.25C5.35711 10.9541 5.59696 10.7143 5.89282 10.7143H14.1071C14.403 10.7143 14.6428 10.9541 14.6428 11.25V14.4643C14.6428 14.7601 14.403 15 14.1071 15H5.89282C5.59696 15 5.35711 14.7601 5.35711 14.4643V11.25ZM6.42854 13.9285V11.7857H13.5714V13.9285H6.42854Z" fill="#424242"/>
</svg>
